inDegrees=no
num_controls=7
num_derivatives=13
num_iterations=130
num_multipliers=7
num_parameters=0
num_slacks=7
num_states=26
objective=0.539083
objective_accelerations=0.073508
objective_balance=0.003571
objective_effort=0.051006
objective_height=0.402010
objective_ligament=0.008988
solver_duration=1342.575772
status=Solve_Succeeded
success=true
DataType=double
version=3
OpenSimVersion=4.5
endheader
time	/jointset/ground_pelvis/pelvis_tilt/value	/jointset/ground_pelvis/pelvis_tx/value	/jointset/ground_pelvis/pelvis_ty/value	/jointset/hip_r/hip_flexion_r/value	/jointset/hip_r/hip_adduction_r/value	/jointset/hip_r/hip_rotation_r/value	/jointset/back/lumbar_extension/value	/jointset/patellofemoral_r/patellar_flexion_r/value	/jointset/knee_r/knee_flexion_r/value	/jointset/knee_r/knee_adduction_r/value	/jointset/knee_r/knee_rotation_r/value	/jointset/ankle_r/ankle_angle_r/value	/jointset/subtalar_r/subtalar_angle_r/value	/jointset/ground_pelvis/pelvis_tilt/speed	/jointset/ground_pelvis/pelvis_tx/speed	/jointset/ground_pelvis/pelvis_ty/speed	/jointset/hip_r/hip_flexion_r/speed	/jointset/hip_r/hip_adduction_r/speed	/jointset/hip_r/hip_rotation_r/speed	/jointset/back/lumbar_extension/speed	/jointset/patellofemoral_r/patellar_flexion_r/speed	/jointset/knee_r/knee_flexion_r/speed	/jointset/knee_r/knee_adduction_r/speed	/jointset/knee_r/knee_rotation_r/speed	/jointset/ankle_r/ankle_angle_r/speed	/jointset/subtalar_r/subtalar_angle_r/speed	/forceset/tau_hip_flexion_r	/forceset/tau_hip_adduction_r	/forceset/tau_hip_rotation_r	/forceset/tau_knee_flexion_r	/forceset/tau_ankle_angle_r	/forceset/tau_subtalar_angle_r	/forceset/tau_lumbar_extension	lambda_cid13_p0	lambda_cid14_p0	lambda_cid14_p1	lambda_cid14_p2	lambda_cid14_p3	lambda_cid14_p4	lambda_cid14_p5	/jointset/ground_pelvis/pelvis_tilt/accel	/jointset/ground_pelvis/pelvis_tx/accel	/jointset/ground_pelvis/pelvis_ty/accel	/jointset/hip_r/hip_flexion_r/accel	/jointset/hip_r/hip_adduction_r/accel	/jointset/hip_r/hip_rotation_r/accel	/jointset/back/lumbar_extension/accel	/jointset/patellofemoral_r/patellar_flexion_r/accel	/jointset/knee_r/knee_flexion_r/accel	/jointset/knee_r/knee_adduction_r/accel	/jointset/knee_r/knee_rotation_r/accel	/jointset/ankle_r/ankle_angle_r/accel	/jointset/subtalar_r/subtalar_angle_r/accel	gamma_cid13_p0	gamma_cid14_p0	gamma_cid14_p1	gamma_cid14_p2	gamma_cid14_p3	gamma_cid14_p4	gamma_cid14_p5
1	-0.3632799278494636	-0.03172239734208313	0.5464133720772827	1.818874393090437	-0.2347861518178883	-0.07402877150225168	-0.4362781657971335	1.67976011142986	1.679760111429974	-0.1745176108233859	0.167549688497541	0.436331871840503	0.1064981352482606	-0.003895643315665107	0.001640245445214122	0.01462395804480368	-0.03586206724464765	0.001857465253311183	-0.01349056211165191	-0.0004670188079125046	-0.03998975415261062	-0.03998975415261053	-0.005828936833126562	-0.0008240160993700645	-0.00042230361016557	0.003324378291825367	-0.3406426776311861	0.00719521739473551	-0.01233116932089519	-0.5607489728606558	0.03268649558853141	0.008705571668434076	0.3397269123988567	-0.04075896853038481	-41.56199998441331	-6.480542239646813	4.901780276563771	23.20847098338329	-843.5456255716776	59.48428962164758	1.00523567413165	-0.1206674740443465	2.478172772045776	-6.925358460461116	0.2105831701109476	-0.3124251804897764	-0.02960507169836317	-6.657567380718056	-6.657567380718008	1.16496375103183	0.2035891125500619	-0.88152946512481	0.02087882689079111	8.585676026422605e-09	1.525187679886e-08	4.304590936911427e-08	6.271586381620126e-08	-8.106306319993144e-09	-1.077405288050984e-08	1.33011599201251e-07
1.01	-0.3632690283293932	-0.03171200499944238	0.5466833802488164	1.818170197587884	-0.2347569696030972	-0.07417475483537915	-0.4362837671080361	1.679027659683879	1.679027659683884	-0.1745131875510903	0.167551464601163	0.4362835184549446	0.1065324299828977	0.00608164261988444	0.0004433315442109901	0.03937143452261437	-0.1049631523366927	0.003978272218293272	-0.01569915588075481	-0.0006495849392535705	-0.106491331477578	-0.106491331477577	0.006720444363523894	0.00117920221190027	-0.009260455385238611	0.003528022438883532	-0.3405093823949859	0.007241637378725056	-0.01224615107979277	-0.5605287632308547	0.03279947874826353	0.008688042808812165	0.3396398673631764	-0.04077283470330072	-41.50984602573519	-6.480479305956107	4.903433504541968	23.11077112006534	-843.3161471982379	59.46202618776168	0.9948967082534294	-0.1184418105186789	2.472093228317782	-6.900394427944196	0.2127449501927793	-0.1740204031556598	-0.01203361876825504	-6.645067844322863	-6.645067844322754	1.300940813606751	0.1987302034258734	-0.88676868906045	0.01916236999027091	2.221665877550987e-08	4.046895498574031e-08	1.146955192820897e-07	1.635527574706792e-07	-2.350254380700268e-08	-2.781011293695582e-08	3.517739658612027e-07
1.02	-0.3631581716189713	-0.03171342948828982	0.5472006748136619	1.816775409055537	-0.234706596220556	-0.07434261289180616	-0.436291084327224	1.67763046917746	1.677630469177357	-0.1743830673649198	0.1675732812904999	0.4361464214205666	0.1065685721912808	0.01609579475491043	-0.0007231208524181426	0.0640812367071851	-0.1739806732034576	0.006095698803312265	-0.0178655067712622	-0.0008102004672411033	-0.172937506240017	-0.1729375062400153	0.01931044594517719	0.003184101043584789	-0.0181710333747874	0.003693873041019593	-0.3403760871587891	0.007288057362715683	-0.01216113283869874	-0.5603085536010537	0.03291246190799666	0.008670513949192642	0.3395528223274928	-0.04080002097259741	-41.46322299907343	-6.476040619158214	4.898284605036077	23.0372439836677	-843.1612067075494	59.48076222996421	1.012608914026931	-0.114575173169536	2.470637913397786	-6.908645615405109	0.2099070941183275	-0.3039766047706894	-0.02521495102756729	-6.646486868212385	-6.646486868212377	1.173087828032382	0.2039252166328972	-0.8960147080199365	0.01332011790637818	3.592484541123367e-08	6.543483871636386e-08	1.850592724753077e-07	2.647789886907466e-07	-3.814776537786574e-08	-4.440417807605185e-08	5.687788542665003e-07
1.03	-0.3629469182403802	-0.03172630255382449	0.5479647908949997	1.814691054587651	-0.234635074613577	-0.07453202505361126	-0.4362998096543014	1.675569247819764	1.675569247819708	-0.1741269578992098	0.1676150924535484	0.4359197274891484	0.1066061164866001	0.02616769385637812	-0.001840036061637689	0.08872706820577221	-0.2428576932987648	0.008207634991331458	-0.02001310682702274	-0.0009222312198167167	-0.2392825159794664	-0.239282515979465	0.03191337194085979	0.005170756243081426	-0.02719222359226593	0.003802831179256616	-0.3400307927031102	0.007365149416754217	-0.01194028873119394	-0.5598584283815624	0.03324752731572991	0.008606799060859795	0.3393370224860381	-0.04083808765522282	-41.32474436767331	-6.476207184617722	4.894589610004717	22.84639410657632	-842.6711521357024	59.46970677272015	1.006418769236363	-0.1085419116179012	2.459306765610228	-6.872335576952834	0.2117364265941595	-0.1695475177512191	-0.0023020779001059	-6.624880638688318	-6.624880638688393	1.304155673533275	0.1950351470500264	-0.9088381374494167	0.007943416234393994	4.963381984171908e-08	9.03981592382501e-08	2.554099046815894e-07	3.660091927431159e-07	-5.278532352101302e-08	-6.099373306293002e-08	7.857658092202199e-07
1.04	-0.3626345581985693	-0.03175000321481537	0.5489749154908278	1.811918908844739	-0.2345424537356277	-0.07474279237832938	-0.4363092762769922	1.672845301842298	1.67284530184229	-0.173744767035894	0.1676765700636808	0.4356020882637844	0.1066444023141922	0.03631712739903552	-0.002888639943659504	0.1132829396051968	-0.3115389282084451	0.01031555299736743	-0.02213653935368214	-0.0009584595934902589	-0.3054824301940005	-0.305482430194	0.04452672546442438	0.007117390460257372	-0.03636009216324856	0.003842179495574994	-0.3396854982474367	0.007442241470794455	-0.01171944462370997	-0.5594083031620717	0.03358259272346484	0.008543084172530935	0.3391212226445783	-0.04088893725247943	-41.19194869833185	-6.472033026092507	4.884107644244409	22.68015822374755	-842.2580250936554	59.49949416700399	1.028115802264868	-0.1009129077299807	2.452645893565275	-6.869488578279726	0.2091034577216828	-0.2991430989504782	-0.01005447524698389	-6.617467763229348	-6.617467763229426	1.175173333608763	0.1959210201687581	-0.9253503787207407	-0.0006018464773442026	6.186267406361749e-08	1.126127395306143e-07	3.191714504597865e-07	4.577487316569658e-07	-6.55657956333876e-08	-7.581278520318292e-08	9.777488069364512e-07
1.05	-0.3622202477106111	-0.03178377733159378	0.5502300624506653	1.808461101925325	-0.2344288088574533	-0.07497480636515488	-0.4363186110595466	1.66946023944048	1.669460239440475	-0.173236506394388	0.1677572941181347	0.4351919282493069	0.1066826307274553	0.04656406121434593	-0.00384769236911396	0.1377230725308789	-0.3799734390308268	0.01241000858432777	-0.02426114428354283	-0.0008840451216787913	-0.3714907444103124	-0.3714907444103149	0.05712936530794208	0.009017163943828259	-0.04570644099180622	0.003782945619172337	-0.3391414716116734	0.007526735808109385	-0.01136543447024508	-0.5587318952203434	0.0341577104133251	0.008439177040846565	0.3387939643898306	-0.04094928277966061	-40.96117932096686	-6.467451750448558	4.87275216218777	22.37921346262786	-841.5231427498594	59.50877070504031	1.025870353611789	-0.09064353965673472	2.436171752929531	-6.82305658278899	0.2091760947223002	-0.1683050241874325	0.01985717823612159	-6.586632319055002	-6.586632319055399	1.303362585364208	0.1856253416166652	-0.9444513815426254	-0.01154333189583989	7.404527452899758e-08	1.34741421690806e-07	3.827270872871059e-07	5.49191687285237e-07	-7.828823380730055e-08	-9.057650912947882e-08	1.168950430989011e-06
1.06	-0.36170289024801	-0.03182659039856753	0.5517289056919314	1.804320425047971	-0.2342943075263015	-0.07522790356811621	-0.4363264681433952	1.665416270082855	1.665416270082853	-0.1726021086993119	0.167856739873258	0.434687269897218	0.1067196749672197	0.05692652232756425	-0.004696429982726164	0.1620221958909461	-0.448112919796075	0.01448684359285065	-0.02635318258074556	-0.0006629198562283987	-0.4372638213555405	-0.4372638213555446	0.06975413617709639	0.01086173059401582	-0.05525975968513769	0.00360534479580527	-0.3385974449759203	0.00761123014542588	-0.01101142431680304	-0.5580554872786156	0.03473282810318791	0.008335269909166313	0.3384667061350733	-0.0410215313107671	-40.73635191183518	-6.458647048302674	4.854710538183201	22.10359747731619	-840.8692908322648	59.55824272246796	1.051221261846448	-0.07884994536152447	2.424443980442281	-6.810482566853023	0.205579342034191	-0.2926297724188933	0.01928768348107722	-6.570420309012589	-6.57042030901237	1.179599538736078	0.1848796534920945	-0.9667443516754911	-0.02427523587022408	8.432741765429294e-08	1.51972927706919e-07	4.367185579446363e-07	6.280440132859431e-07	-8.560479869502316e-08	-1.029890327424838e-07	1.325683828586338e-06
1.07	-0.3610814539480656	-0.03187720489761531	0.5534699727603424	1.799500002439739	-0.2341391556945169	-0.07550203857732452	-0.4363305841116146	1.660715844950452	1.66071584495046	-0.1718416183683565	0.1679743005346474	0.4340860774524949	0.1067543181215044	0.06736678550795773	-0.005394576668753414	0.1861618324546221	-0.5159060725166751	0.01653791358430729	-0.02847414076168361	-5.554829168840047e-05	-0.5027730135425401	-0.502773013542535	0.08234354527398961	0.01263553624987976	-0.06500918163075302	0.003300554789979959	-0.3383746914253686	0.007697990269230927	-0.01053135130975545	-0.5570891802518799	0.03531673639662959	0.008221094471666735	0.338534770361405	-0.04109632456010956	-40.50364488030578	-6.44919515022501	4.832308835060051	21.65714034220611	-840.2599767207535	59.59116039019512	1.041367483593772	-0.06053168266819666	2.404292464779243	-6.75387243669412	0.2041218067991577	-0.1718167548253749	0.09717072002609205	-6.533958981846112	-6.533958981844894	1.298503080837495	0.1716037084668179	-0.9836029416978661	-0.0368308323119887	9.450847262320082e-08	1.689439456302618e-07	4.902012963590925e-07	7.062266249447574e-07	-9.263381713135261e-08	-1.152764925090372e-07	1.480583809882854e-06
1.08	-0.3603554272888244	-0.03193384779401243	0.5554515499884799	1.794003620141898	-0.2339636429669976	-0.07579738075112194	-0.4363254845989437	1.655361769834519	1.655361769834532	-0.1709552556492935	0.1681091937899624	0.4333864784231759	0.1067852633858562	0.07784459418667126	-0.005902109452591502	0.2101242278362467	-0.5833048577185027	0.01855902273967345	-0.03059461549838569	0.001180176356274509	-0.5679938180616385	-0.5679938180616263	0.09492861379774443	0.01432824937907486	-0.07494107660410083	0.002865766809222576	-0.3381519378748034	0.007784750393037738	-0.0100512783027203	-0.5561228732251445	0.03590064469007003	0.008106919034169938	0.338602834587751	-0.04118207519272226	-40.27726142438925	-6.435702974936108	4.803382998843285	21.23659703519447	-839.7380947484553	59.6631430775094	1.058730361510461	-0.04072716492368983	2.388995744031987	-6.731609063098517	0.1995871748160937	-0.2925330835717042	0.1449583001656966	-6.512742775432295	-6.512742775432551	1.178731424108394	0.1686611481583277	-1.003238957221982	-0.05027483085663844	1.016463268397199e-07	1.810396653397428e-07	5.308868731563161e-07	7.648306241171074e-07	-9.783928169100291e-08	-1.243265445138949e-07	1.587404034199346e-06
1.09	-0.3595245187706993	-0.03199448655637999	0.5576717923022151	1.787835380801192	-0.2337681088770386	-0.07611422697685	-0.436304209236293	1.649357054956454	1.649357054956472	-0.1699433479452797	0.1682605727750177	0.4325866852595107	0.1068111632387819	0.08833332352794816	-0.006181099611043207	0.23388774670259	-0.6502618910968717	0.02053869275003174	-0.03277498194659917	0.003249119817934944	-0.6328893618052837	-0.6328893618052809	0.1074544894458884	0.01593113419265695	-0.08504363473528929	0.002287235597600918	-0.3381437840305683	0.007711224322305953	-0.00945236420760975	-0.5548445840301681	0.03650201924750455	0.008069798536405423	0.3389622197651265	-0.04126959915341353	-40.0283585901744	-6.363493519907816	4.740755997168885	20.64268280760674	-839.1627528477757	59.83713343975303	1.043412575609987	-0.0148241031463982	2.364529940581351	-6.665548288985433	0.1958993055803664	-0.1807719692548535	0.2639959145881739	-6.469012648014408	-6.469012648015644	1.289694405973485	0.1538741681624679	-1.017669800217956	-0.06550173882591391	1.08552633172905e-07	1.927644384459952e-07	5.705987528739677e-07	8.219449462524439e-07	-1.029059975861233e-07	-1.331302720151454e-07	1.690566016136923e-06
